<mxfile host="app.diagrams.net" modified="2021-01-22T14:53:01.719Z" agent="5.0 (Windows)" etag="ywKEnRx_oTJ8xQA8mEWI" version="14.2.4" type="github">
  <diagram id="Hs4SqH-4esL8PDNroFPw" name="Page-1">
    <mxGraphModel dx="1417" dy="581" grid="1" gridSize="10" guides="1" tooltips="1" connect="1" arrows="1" fold="1" page="1" pageScale="1" pageWidth="827" pageHeight="1169" math="0" shadow="0">
      <root>
        <mxCell id="0" />
        <mxCell id="1" parent="0" />
        <mxCell id="wu6JjeLC8tGpBvf55qIu-1" value="客户端" style="verticalAlign=top;align=left;spacingTop=8;spacingLeft=2;spacingRight=12;shape=cube;size=10;direction=south;fontStyle=4;html=1;" vertex="1" parent="1">
          <mxGeometry x="210" y="170" width="80" height="60" as="geometry" />
        </mxCell>
        <mxCell id="wu6JjeLC8tGpBvf55qIu-2" value="显示器" style="verticalAlign=top;align=left;spacingTop=8;spacingLeft=2;spacingRight=12;shape=cube;size=10;direction=south;fontStyle=4;html=1;" vertex="1" parent="1">
          <mxGeometry x="90" y="100" width="80" height="60" as="geometry" />
        </mxCell>
        <mxCell id="wu6JjeLC8tGpBvf55qIu-5" value="" style="endArrow=none;html=1;exitX=0;exitY=0;exitDx=35;exitDy=80;exitPerimeter=0;" edge="1" parent="1" source="wu6JjeLC8tGpBvf55qIu-1">
          <mxGeometry width="50" height="50" relative="1" as="geometry">
            <mxPoint x="105" y="210" as="sourcePoint" />
            <mxPoint x="155" y="160" as="targetPoint" />
          </mxGeometry>
        </mxCell>
        <mxCell id="wu6JjeLC8tGpBvf55qIu-6" value="服务器" style="verticalAlign=top;align=left;spacingTop=8;spacingLeft=2;spacingRight=12;shape=cube;size=10;direction=south;fontStyle=4;html=1;" vertex="1" parent="1">
          <mxGeometry x="316" y="240" width="80" height="60" as="geometry" />
        </mxCell>
        <mxCell id="wu6JjeLC8tGpBvf55qIu-7" value="" style="endArrow=none;html=1;exitX=0;exitY=0;exitDx=35;exitDy=80;exitPerimeter=0;" edge="1" parent="1">
          <mxGeometry width="50" height="50" relative="1" as="geometry">
            <mxPoint x="315" y="275" as="sourcePoint" />
            <mxPoint x="260" y="230" as="targetPoint" />
          </mxGeometry>
        </mxCell>
        <mxCell id="wu6JjeLC8tGpBvf55qIu-8" value="网络" style="text;html=1;strokeColor=none;fillColor=none;align=center;verticalAlign=middle;whiteSpace=wrap;rounded=0;" vertex="1" parent="1">
          <mxGeometry x="270" y="240" width="40" height="20" as="geometry" />
        </mxCell>
        <mxCell id="wu6JjeLC8tGpBvf55qIu-10" value="客户端" style="verticalAlign=top;align=left;spacingTop=8;spacingLeft=2;spacingRight=12;shape=cube;size=10;direction=south;fontStyle=4;html=1;" vertex="1" parent="1">
          <mxGeometry x="440" y="170" width="80" height="60" as="geometry" />
        </mxCell>
        <mxCell id="wu6JjeLC8tGpBvf55qIu-11" value="USB接口" style="verticalAlign=top;align=left;spacingTop=8;spacingLeft=2;spacingRight=12;shape=cube;size=10;direction=south;fontStyle=4;html=1;" vertex="1" parent="1">
          <mxGeometry x="550" y="100" width="80" height="60" as="geometry" />
        </mxCell>
        <mxCell id="wu6JjeLC8tGpBvf55qIu-17" value="" style="endArrow=none;html=1;exitX=0.526;exitY=0.016;exitDx=0;exitDy=0;exitPerimeter=0;entryX=1.017;entryY=0.716;entryDx=0;entryDy=0;entryPerimeter=0;" edge="1" parent="1" source="wu6JjeLC8tGpBvf55qIu-6" target="wu6JjeLC8tGpBvf55qIu-10">
          <mxGeometry width="50" height="50" relative="1" as="geometry">
            <mxPoint x="450" y="260" as="sourcePoint" />
            <mxPoint x="395" y="215" as="targetPoint" />
          </mxGeometry>
        </mxCell>
        <mxCell id="wu6JjeLC8tGpBvf55qIu-20" value="网络" style="text;html=1;strokeColor=none;fillColor=none;align=center;verticalAlign=middle;whiteSpace=wrap;rounded=0;" vertex="1" parent="1">
          <mxGeometry x="410" y="240" width="40" height="20" as="geometry" />
        </mxCell>
        <mxCell id="wu6JjeLC8tGpBvf55qIu-23" value="" style="endArrow=none;html=1;exitX=0;exitY=0;exitDx=60;exitDy=45;exitPerimeter=0;" edge="1" parent="1" source="wu6JjeLC8tGpBvf55qIu-11">
          <mxGeometry width="50" height="50" relative="1" as="geometry">
            <mxPoint x="575" y="230" as="sourcePoint" />
            <mxPoint x="520" y="185.00000000000006" as="targetPoint" />
          </mxGeometry>
        </mxCell>
        <mxCell id="wu6JjeLC8tGpBvf55qIu-24" value="" style="verticalAlign=top;align=left;spacingTop=8;spacingLeft=2;spacingRight=12;shape=cube;size=10;direction=south;fontStyle=4;html=1;" vertex="1" parent="1">
          <mxGeometry x="45" y="330" width="640" height="60" as="geometry" />
        </mxCell>
        <mxCell id="wu6JjeLC8tGpBvf55qIu-25" value="&lt;font style=&quot;font-size: 18px&quot;&gt;局域网&lt;/font&gt;" style="text;html=1;strokeColor=none;fillColor=none;align=center;verticalAlign=middle;whiteSpace=wrap;rounded=0;" vertex="1" parent="1">
          <mxGeometry x="320" y="350" width="90" height="20" as="geometry" />
        </mxCell>
        <mxCell id="wu6JjeLC8tGpBvf55qIu-26" value="传感器采集点" style="verticalAlign=top;align=left;spacingTop=8;spacingLeft=2;spacingRight=12;shape=cube;size=10;direction=south;fontStyle=4;html=1;" vertex="1" parent="1">
          <mxGeometry x="90" y="450" width="80" height="60" as="geometry" />
        </mxCell>
        <mxCell id="wu6JjeLC8tGpBvf55qIu-27" value="传感器采集点" style="verticalAlign=top;align=left;spacingTop=8;spacingLeft=2;spacingRight=12;shape=cube;size=10;direction=south;fontStyle=4;html=1;" vertex="1" parent="1">
          <mxGeometry x="210" y="450" width="80" height="60" as="geometry" />
        </mxCell>
        <mxCell id="wu6JjeLC8tGpBvf55qIu-28" value="传感器采集点" style="verticalAlign=top;align=left;spacingTop=8;spacingLeft=2;spacingRight=12;shape=cube;size=10;direction=south;fontStyle=4;html=1;" vertex="1" parent="1">
          <mxGeometry x="334" y="450" width="80" height="60" as="geometry" />
        </mxCell>
        <mxCell id="wu6JjeLC8tGpBvf55qIu-29" value="传感器采集点" style="verticalAlign=top;align=left;spacingTop=8;spacingLeft=2;spacingRight=12;shape=cube;size=10;direction=south;fontStyle=4;html=1;" vertex="1" parent="1">
          <mxGeometry x="460" y="450" width="80" height="60" as="geometry" />
        </mxCell>
        <mxCell id="wu6JjeLC8tGpBvf55qIu-30" value="传感器采集点" style="verticalAlign=top;align=left;spacingTop=8;spacingLeft=2;spacingRight=12;shape=cube;size=10;direction=south;fontStyle=4;html=1;" vertex="1" parent="1">
          <mxGeometry x="590" y="450" width="80" height="60" as="geometry" />
        </mxCell>
        <mxCell id="wu6JjeLC8tGpBvf55qIu-31" value="" style="endArrow=none;html=1;" edge="1" parent="1">
          <mxGeometry width="50" height="50" relative="1" as="geometry">
            <mxPoint x="120" y="450" as="sourcePoint" />
            <mxPoint x="80" y="390" as="targetPoint" />
          </mxGeometry>
        </mxCell>
        <mxCell id="wu6JjeLC8tGpBvf55qIu-33" value="" style="endArrow=none;html=1;" edge="1" parent="1">
          <mxGeometry width="50" height="50" relative="1" as="geometry">
            <mxPoint x="250" y="450" as="sourcePoint" />
            <mxPoint x="210" y="390" as="targetPoint" />
          </mxGeometry>
        </mxCell>
        <mxCell id="wu6JjeLC8tGpBvf55qIu-34" value="" style="endArrow=none;html=1;" edge="1" parent="1">
          <mxGeometry width="50" height="50" relative="1" as="geometry">
            <mxPoint x="370" y="450" as="sourcePoint" />
            <mxPoint x="330" y="390" as="targetPoint" />
          </mxGeometry>
        </mxCell>
        <mxCell id="wu6JjeLC8tGpBvf55qIu-35" value="" style="endArrow=none;html=1;" edge="1" parent="1">
          <mxGeometry width="50" height="50" relative="1" as="geometry">
            <mxPoint x="500" y="450" as="sourcePoint" />
            <mxPoint x="460" y="390" as="targetPoint" />
          </mxGeometry>
        </mxCell>
        <mxCell id="wu6JjeLC8tGpBvf55qIu-36" value="" style="endArrow=none;html=1;" edge="1" parent="1">
          <mxGeometry width="50" height="50" relative="1" as="geometry">
            <mxPoint x="630" y="450" as="sourcePoint" />
            <mxPoint x="590" y="390" as="targetPoint" />
          </mxGeometry>
        </mxCell>
        <mxCell id="wu6JjeLC8tGpBvf55qIu-38" value="" style="endArrow=none;html=1;entryX=0;entryY=0;entryDx=60;entryDy=45;entryPerimeter=0;" edge="1" parent="1" source="wu6JjeLC8tGpBvf55qIu-24" target="wu6JjeLC8tGpBvf55qIu-6">
          <mxGeometry width="50" height="50" relative="1" as="geometry">
            <mxPoint x="330" y="340" as="sourcePoint" />
            <mxPoint x="380" y="290" as="targetPoint" />
          </mxGeometry>
        </mxCell>
        <mxCell id="wu6JjeLC8tGpBvf55qIu-39" value="鼠标" style="verticalAlign=top;align=left;spacingTop=8;spacingLeft=2;spacingRight=12;shape=cube;size=10;direction=south;fontStyle=4;html=1;" vertex="1" parent="1">
          <mxGeometry x="80" y="180" width="80" height="60" as="geometry" />
        </mxCell>
        <mxCell id="wu6JjeLC8tGpBvf55qIu-40" value="" style="endArrow=none;html=1;exitX=0.825;exitY=1.005;exitDx=0;exitDy=0;exitPerimeter=0;" edge="1" parent="1" source="wu6JjeLC8tGpBvf55qIu-1">
          <mxGeometry width="50" height="50" relative="1" as="geometry">
            <mxPoint x="215" y="260" as="sourcePoint" />
            <mxPoint x="160" y="215" as="targetPoint" />
          </mxGeometry>
        </mxCell>
        <mxCell id="wu6JjeLC8tGpBvf55qIu-41" value="键盘" style="verticalAlign=top;align=left;spacingTop=8;spacingLeft=2;spacingRight=12;shape=cube;size=10;direction=south;fontStyle=4;html=1;" vertex="1" parent="1">
          <mxGeometry x="90" y="250" width="80" height="60" as="geometry" />
        </mxCell>
        <mxCell id="wu6JjeLC8tGpBvf55qIu-42" value="" style="endArrow=none;html=1;exitX=1.022;exitY=0.652;exitDx=0;exitDy=0;exitPerimeter=0;" edge="1" parent="1" source="wu6JjeLC8tGpBvf55qIu-1">
          <mxGeometry width="50" height="50" relative="1" as="geometry">
            <mxPoint x="219.60000000000002" y="282.25" as="sourcePoint" />
            <mxPoint x="170" y="277.75" as="targetPoint" />
          </mxGeometry>
        </mxCell>
        <mxCell id="wu6JjeLC8tGpBvf55qIu-44" value="打印机" style="verticalAlign=top;align=left;spacingTop=8;spacingLeft=2;spacingRight=12;shape=cube;size=10;direction=south;fontStyle=4;html=1;" vertex="1" parent="1">
          <mxGeometry x="550" y="220" width="80" height="60" as="geometry" />
        </mxCell>
        <mxCell id="wu6JjeLC8tGpBvf55qIu-45" value="" style="endArrow=none;html=1;exitX=0;exitY=0;exitDx=35;exitDy=80;exitPerimeter=0;" edge="1" parent="1" source="wu6JjeLC8tGpBvf55qIu-44">
          <mxGeometry width="50" height="50" relative="1" as="geometry">
            <mxPoint x="555" y="205" as="sourcePoint" />
            <mxPoint x="490" y="230" as="targetPoint" />
          </mxGeometry>
        </mxCell>
      </root>
    </mxGraphModel>
  </diagram>
</mxfile>
